Patient4_TMGait_0pt2_01_left_08_EMG.mot
version=1
nRows=36
nColumns=33
inDegrees=no
endheader
time	1LAddLong	2LGlutMax	3LGlutMed	4LIliopsoas	5LSemiMemb	6LBicFemLong	7LRecFem	8LVastMed	9LVastLat	10LGasMed	11LTibAnt	12lTibPost	13LPeroneusLong	14LSol	15LExtDigLong	16LFlexDigLong	17RAddLong	18RGlutMax	19RGlutMed	20RIliopsoas	21RSemiMemb	22RBicFemLong	23RRecFem	24RVastMed	25RVastLat	26RGasMed	27RTibAnt	28RTibPost	29RPeroneusLong	30RSol	31RExtDigLong	32RFlexDigLong
19.963	0.009308	0.002594	-0.042725	0.017853	0.011749	-0.031738	-0.090027	0.00473	0.005188	0.003052	0.050812	0.036469	0.021057	-0.060577	0.093994	0.00885	-0.11902	-0.11551	-0.51071	0.023193	0.27542	-0.020294	-0.48019	-0.29938	-0.32089	0.028687	0.03891	-0.25574	-0.28442	0.2269	0.001526	-0.018921
19.964	0.009766	0.018768	-0.055084	0.04364	0.016327	-0.009308	-0.065155	0.007019	0.021973	-0.019226	-0.13321	0.036926	0.063934	-0.006104	0.14038	0.009918	-0.087433	-0.062561	-0.56839	-0.048828	0.15808	-0.00412	-0.46463	-0.33493	-0.34332	-0.027466	-0.039368	0.25711	0.34073	0.15381	0.000916	-0.024567
19.965	0.000763	0.022583	0.012054	0.043945	0.011749	-0.034485	-0.11993	0.005188	0.022736	-0.042572	-0.20386	0.034027	0.12558	-0.02655	0.09613	0.008087	-0.007477	-0.033569	0.086517	-0.055237	0.070801	0.013428	-0.55481	-0.31677	-0.22446	-0.036316	-0.028229	0.31113	0.17868	0.20187	-0.006561	-0.016479
19.966	0.002747	0.043335	0.040436	0.006256	0.015717	-0.030365	-0.16525	0.005493	0.01297	-0.061646	0.12268	0.027771	0.073547	0.004425	0.20767	0.015869	0.049438	0.02243	0.37705	-0.083313	0.040131	-0.059814	-0.55832	-0.28122	-0.067902	-0.036163	-0.010681	0.090179	0.68222	0.29266	-0.002289	-0.015869
19.967	0.005646	0.04364	-0.031738	0.001678	0.015564	-0.026093	-0.11215	0.003967	0.003815	-0.048065	0.19653	0.021973	-0.023346	0.081177	0.16937	0.008698	0.10574	-0.034637	0.60043	-0.072937	-0.10635	-0.056458	-0.40375	-0.33859	0.040283	-0.037689	-0.037689	-0.070953	0.89279	0.042114	-0.000763	-0.016022
19.968	-0.001678	0.0177	-0.086212	0.000305	0.010986	-0.029907	-0.10971	0.00061	0.011139	-0.014648	0.08255	0.016022	-0.040283	0.090942	-0.3772	-0.005798	0.045624	0.002747	0.36713	-0.048676	-0.22278	0.027008	-0.30441	-0.53711	0.12955	-0.033875	-0.098267	-0.21896	0.56259	-0.35812	-0.002594	-0.010834
19.969	0.012054	0.048218	-0.030365	-0.013733	0.023041	-0.034027	-0.074005	0.002594	0.019684	0.033875	-0.007324	0.018768	-0.12802	0.090179	-0.32501	0.00412	-0.000763	-0.023956	0.054016	-0.059814	-0.36636	0.077362	-0.20645	-0.53375	0.12024	-0.024109	-0.070801	0.14908	0.2002	-0.35858	-0.001526	-0.013428
19.97	-0.036316	0.037689	0.077972	-0.019073	0.013123	-0.039215	-0.091095	0.009308	0.018921	0.054932	-0.067291	0.012054	-0.17212	0.12116	-0.14313	0.006561	-0.021362	0.067444	-0.6012	-0.063019	0.19608	0.037231	-0.23865	-0.32516	0.11566	-0.015564	-0.056458	0.10361	0.026398	-0.1265	-0.002441	-0.006104
19.971	-0.054169	0.014648	0.15091	0.019073	0.016632	-0.020294	-0.048523	0.003357	0.005493	0.037384	-0.092316	0.02594	-0.16312	0.15366	0.71182	-0.003052	-0.010681	0.13611	-0.97229	-0.068207	0.041046	-0.1268	-0.18723	-0.097809	0.004272	0.002747	-0.019073	0.071716	-0.18249	0.15121	-0.005493	-0.005188
19.972	-0.016479	0.016022	0.057831	0.019836	0.014496	-0.049896	-0.019073	0.006104	0.014343	-0.019836	-0.060577	0.033875	-0.023041	0.094299	-0.16876	0.007172	-0.017853	0.13306	-0.65384	-0.13412	-0.1648	-0.25299	0.06134	0.050812	-0.3569	0.004272	0.10132	-0.097656	0.016632	0.33127	0.00061	-0.010986
19.973	0.00824	0.032349	0.051575	0.002594	0.019531	-0.040436	0.004425	0.003815	0.010986	-0.03418	0.0383	0.021057	0.041656	0.003967	0.08255	-0.005951	-0.059052	0.070953	0.47958	-0.19577	-0.035858	-0.1857	0.080109	0.13336	-0.43335	0.007782	0.18188	0.081177	0.52933	0.22629	0.002899	-0.013275
19.974	0.012054	0.032654	0.048065	-0.014343	0.008392	-0.052795	0.010223	0.009308	0.018616	-0.046844	0.2771	0.025177	0.044556	-0.042419	-0.25131	0.007782	-0.058899	0.081329	0.79422	-0.067596	-0.036926	-0.26749	0.048218	0.26154	-0.24063	0.001373	0.26215	0.029449	-0.070953	0.030975	-0.005493	-0.004272
19.975	0.013733	0.010681	0.04425	0.011597	0.016174	-0.068054	0.015564	0.011597	0.012054	-0.057068	0.25101	0.033722	-0.003357	-0.075989	-0.20081	-0.003357	-0.040741	0.020294	0.57205	-0.001221	0.42191	-0.24872	0.16663	0.1268	-0.10147	-0.012817	0.10071	-0.000458	0.031281	-0.14816	0.001678	-0.016022
19.976	0.017853	-0.007019	0.049133	0.011902	0.018158	-0.060577	0.062408	0.007477	-0.001678	-0.017548	0.12665	0.015717	-0.071869	-0.082245	-0.24582	-0.002136	-0.00351	-0.079498	0.77576	0.086365	0.27435	-0.09903	0.18051	-0.007477	-0.053558	-0.011444	-0.23666	-0.008392	-0.36529	-0.18204	0.000916	-0.009613
19.977	0.015411	-0.00473	0.051575	-0.007019	0.020752	-0.075226	0.082855	0.012512	-0.003967	0.02655	0.25238	0.026245	-0.16159	-0.21255	-0.41473	0.001526	0.009766	0.010223	0.5365	0.21835	0.14221	0.15961	0.18997	-0.081329	-0.019379	-0.009613	-0.49164	-0.020447	0.2002	-0.19028	-0.00061	-0.000458
19.978	0.017395	0.027161	0.040283	0.002289	0.015717	-0.065155	0.090637	0.011749	-0.010376	0.01358	0.22659	0.030975	-0.053101	-0.21469	-0.35263	-0.005646	-0.010223	0.005646	0.9137	0.12238	0.12299	0.41718	0.17303	-0.16586	0.001373	-0.011749	0.04776	-0.016937	0.39154	-0.1091	-0.000916	-0.011902
19.979	0.016327	0.01297	0.018921	-0.004425	0.023956	-0.048981	0.032654	0.017853	-0.009155	0.027008	0.23529	0.016327	-0.076599	-0.14633	0.063171	0.005341	-0.00885	0.12436	1.0652	0.041351	0.10132	0.45776	0.19272	-0.3125	-0.021362	-0.014648	0.28671	-0.020599	-0.28702	-0.08606	-0.003357	-0.003662
19.98	0.008087	0.045929	0.036316	-0.000153	-0.005188	-0.061798	-0.028076	0.016174	0.005341	-0.002594	0.054169	0.023956	-0.045166	0.008087	0.50888	0.000305	-0.026703	0.103	0.2713	0.050049	0.062561	0.42114	0.15335	-0.2829	-0.067596	-0.012665	0.242	-0.016632	-0.99915	-0.089874	-0.001526	-0.005341
19.981	0.016937	0.036774	0.004883	0.002747	0.015411	-0.072327	-0.083008	0.016327	0.001068	-0.023499	-0.15686	0.027771	-0.014648	0.055084	0.26688	-0.006866	-0.029144	0.04425	-0.41367	0.053864	-0.056152	0.31662	0.10346	-0.20874	-0.078735	0.000153	-0.007629	-0.016785	0.26718	-0.050049	-0.001678	0.00946
19.982	0.012054	0.026855	-0.015869	0.008392	0.041351	-0.05127	-0.10269	0.014648	0.014648	-0.041046	-0.12222	0.013275	0.010986	0.094147	0.41916	-0.011444	-0.005341	0.047302	-0.14908	0.096588	0.029297	0.17761	0.27283	-0.01358	-0.090332	0.010986	-0.086823	-0.022583	1.7708	-0.020447	0.000305	-0.003967
19.983	0.015564	0.005951	-0.007935	0.001984	0.012207	-0.063782	-0.09491	0.014191	0.005646	0.010071	-0.16525	0.032654	-0.04715	0.021057	0.25421	-0.016937	-0.012207	0.027771	-0.29602	0.067139	0.075989	0.06012	0.26627	0.049133	-0.085144	0.010681	-0.020142	-0.02533	0.35996	0.027313	-0.00061	0.003815
19.984	0.012207	0.007629	0.032806	-0.010223	0.013885	-0.035706	-0.072174	0.020142	-0.002747	-0.000763	-0.009003	0.030518	-0.035858	-0.089417	-0.57602	-0.018005	0.007019	0.020294	0.2832	0.009003	0.066833	-0.11658	0.30212	0.56763	-0.11292	0.000916	0.13687	-0.020752	-1.1743	0.11505	-0.00412	-0.000916
19.985	0.014038	0.015106	0.00351	0.008087	0.016327	-0.02594	-0.036163	0.015259	-0.01358	-0.00351	0.00946	0.032501	-0.052185	-0.096893	-0.42664	-0.00412	0.029907	0.080414	0.53024	-0.046234	0.007477	-0.31403	0.27969	0.67871	-0.075836	0.013733	0.097809	-0.023346	-0.18372	0.071564	0.000153	-0.010529
19.986	0.019531	0.009918	-0.020599	0.010834	0.021973	-0.037689	-0.03952	0.018921	-0.019684	0.010223	0.026855	0.031586	-0.055237	-0.012512	-0.16007	-0.014343	0.046387	0.03006	0.2388	-0.054169	-0.020599	-0.40695	0.12543	0.51025	-0.010223	0.01297	0.051575	-0.018768	-0.33157	-0.080872	0.001526	-0.005035
19.987	0.020905	0.018463	-0.010986	-0.007477	0.02121	-0.043945	-0.015564	0.007477	-0.009766	0.023956	-0.13245	0.028992	-0.09964	0.085297	0.032043	-0.009003	0.076599	0.024567	-0.40985	-0.037537	-0.0354	-0.22278	0.10208	-0.2327	-0.080109	-0.014343	0.11719	-0.012665	0.14801	-0.17029	-0.001068	-0.006866
19.988	0.012207	0.000916	0.010681	0.000458	0.031586	-0.042419	0.016327	0.015717	-0.016479	-0.003967	0.027924	0.035095	-0.085449	0.14893	0.14252	-0.006256	0.095978	0.084381	-0.784	0.000153	-0.23071	-0.12787	-0.15472	-0.55878	-0.16098	-0.033569	0.046234	0.014343	0.14832	-0.2124	0.001526	-0.003052
19.989	0.013885	-0.005341	0.020294	0.016327	0.023651	-0.018921	0.029449	0.012665	-0.018311	-0.009766	0.3215	0.03067	-0.018311	0.14313	0.069885	-0.03067	0.092163	0.045624	-0.20386	0.006866	-0.16953	-0.091705	-0.5545	-0.41214	-0.19241	0.005188	-0.11292	0.001526	0.21545	-0.63339	-0.000916	-0.00412
19.99	0.015106	-0.005035	0.002747	0.045319	0.022125	-0.030518	0.055084	0.011139	-0.008545	-0.029144	0.01709	0.023041	0.012817	0.061646	0.13779	-0.015106	0.066071	0.070953	-0.27268	0.028992	-0.03479	0.048218	-0.45227	-0.15518	-0.087128	-0.020599	-0.18768	-0.018311	0.34409	-0.737	0.00061	-0.010986
19.991	0.010681	0.019989	-0.002289	0.04425	0.010529	-0.026398	0.028839	0.014954	-0.000305	-0.034485	-0.29129	0.028229	0.06958	-0.086212	0.28397	-0.007324	0.085907	0.063019	-0.26001	0.0383	0.027771	0.29999	0.090942	0.047913	-0.074158	-0.044556	-0.043182	-0.095825	0.029755	-0.44647	-0.002289	-0.02243
19.992	0.018158	0.05188	0.022278	0.021362	0.019836	-0.047455	0.040894	0.011292	-0.002899	-0.041351	-0.18021	0.0383	0.11536	-0.11078	0.099792	-0.007019	0.11139	0.076904	-0.058136	-0.070038	-0.005493	0.30701	0.36911	-0.079346	0.086975	-0.037842	-0.097351	-0.040741	-0.021515	0.34058	-0.002594	-0.014038
19.993	0.008087	0.009613	0.033569	-0.011444	0.019226	-0.044556	0.017548	0.016022	-0.006561	0.014191	-0.16007	0.039673	-0.020905	-0.1265	-0.24399	-0.027313	0.071106	0.065918	0.87204	-0.14877	-0.15549	0.14832	0.4184	-0.012512	0.26657	-0.024261	-0.13534	0.012512	0.75348	0.62424	-0.00061	-0.012054
19.994	0.011444	0.008087	0.013733	-0.021667	0.0177	-0.057526	-0.001373	0.013123	-0.007172	-0.011597	-0.067291	0.021515	-0.011902	-0.13947	-0.072632	-0.020294	0.057983	0.058746	0.50339	-0.19012	-0.2214	0.003967	0.20248	-0.034943	0.18631	-0.007324	-0.064087	0.032043	0.23468	0.61768	-0.001068	-0.016785
19.995	0.013275	0.019379	0.02655	-0.017395	0.025787	-0.057526	-0.055847	0.010529	0.012512	-0.001068	0.021362	0.035858	-0.046082	-0.079346	-0.009155	-0.007324	0.051727	0.00351	-0.10544	-0.10162	-0.006256	-0.11871	0.067902	-0.1294	0.12604	-0.013733	0.05661	0.05127	-2.1341	0.49591	-0.000916	-0.026398
19.996	0.01709	0.019989	0.033417	0.002747	0.016632	-0.048676	-0.10788	0.010834	0.009155	0.016174	0.095825	0.018768	-0.098419	0.025024	-0.062866	-0.006409	0.061035	0.048828	-0.39749	0.051575	-0.25436	-0.056152	0.024872	0.063019	0.18021	-0.009155	0.10513	-0.011902	-1.5988	0.37506	-0.001221	-0.033875
19.997	0.015411	0.050812	0.009155	0.018005	0.033722	-0.067596	-0.15976	0.010681	-0.002899	0.005188	0.12024	0.019531	-0.085144	0.054321	-0.067749	-0.006866	0.05127	0.079498	-0.33249	0.17975	-0.42129	-0.10223	-0.010529	0.14801	0.13412	0	0.005493	-0.013428	0.89737	0.13687	-0.006104	-0.020142
19.998	0.006561	0.032196	-0.015259	0.01709	0.02533	-0.077209	-0.19531	0.006714	-0.003052	-0.0177	0.22583	0.018921	-0.075226	0.055542	-0.14893	0.000305	0.008392	0.068359	-0.34134	0.18585	-0.25955	-0.11566	-0.029297	0.14603	0.066223	0.012817	0.020752	-0.013428	0.48889	-0.009003	-0.001526	-0.024567
